<svg width="205" height="113" viewBox="0 0 205 113" fill="none" xmlns="http://www.w3.org/2000/svg">
    <path d="M24.7582 4.07018L24.129 2.5H22.4375H5H2.5V5V107.375V109.875H5H18.5H21V107.375V67.5078V67.4688L20.9988 67.4299L20.0985 38.5733L48.3864 108.315L49.0193 109.875H50.7031H61.0391H62.7231L63.3559 108.314L91.7407 38.3024L90.8839 67.4343L90.8828 67.4711V67.5078V107.375V109.875H93.3828H106.883H109.383V107.375V5V2.5H106.883H89.375H87.6835L87.0543 4.07018L55.9062 81.8095L24.7582 4.07018ZM199.344 18.6094H201.844V16.1094V5V2.5H199.344H120.172H117.672V5V16.1094V18.6094H120.172H150.508V107.375V109.875H153.008H166.438H168.938V107.375V18.6094H199.344Z" stroke="white" stroke-width="5"/>
</svg>
